<svg width="28" height="28" viewBox="0 0 1024 1024" xmlns="http://www.w3.org/2000/svg">
  <defs>
    <linearGradient id="grad" x1="0%" y1="0%" x2="100%" y2="0%">
      <stop offset="0%" stop-color="red"/>
      <stop offset="100%" stop-color="yellow"/>
    </linearGradient>
  </defs>
  <!-- Black background circle behind the head -->
  <circle cx="310" cy="447" r="200" fill="black"/>
  <!-- Teacher's head: now filled with the gradient -->
  <path d="M311.6 592.8c-80.4 0-145.7-65.4-145.7-145.7s65.4-145.7 145.7-145.7S457.3 366.7 457.3 447s-65.4 145.8-145.7 145.8z" fill="url(#grad)"/>
  <!-- Body and additional details -->
  <path d="M556.5 902.6h-47.9V758.3c0-56.4-45.9-102.3-102.3-102.3H216.8c-56.4 0-102.3 45.9-102.3 102.3v144.3H66.6V758.3C66.6 675.4 134 608 216.8 608h189.4c82.8 0 150.2 67.4 150.2 150.2v144.4z" fill="#333333"/>
  <path d="M957.4 798.7H657.8v-47.9h251.7V159.5H272.4v107.9h-47.9V111.6h732.9z" fill="black"/>
  <path d="M510.715 892.736l184.668-411.903 43.709 19.596-184.668 411.903z" fill="#333333"/>
</svg>
